# xmcd
#
# Track frame offsets: 
#        150
#        11755
#        27043
#        39523
#        51905
#        65588
#        75030
#        99170
#        113213
#        128273
#        141910
#        156495
#
# Disc length: 2262 seconds
#
# Revision: 3
# Processed by: cddbd v1.5.2PL0 Copyright (c) Steve Scherf et al.
# Submitted via: ExactAudioCopy v0.99pb4
#
DISCID=8d08d40c
DTITLE=John Lee Hooker - Boogie Chillen'
DYEAR=1991
DGENRE=Blues
TTITLE0=Boogie Chillen'
TTITLE1=Tupel
TTITLE2=Hobo Blues
TTITLE3=Walking The Boogie
TTITLE4=Lonely Boy Boogie
TTITLE5=Hey Boogie
TTITLE6=The Waterfront
TTITLE7=Worried Life Blues
TTITLE8=Ramblin' By Myself
TTITLE9=Stella Mae
TTITLE10=Sugar Mama
TTITLE11=Union Station Blues
EXTD=
EXTT0=
EXTT1=
EXTT2=
EXTT3=
EXTT4=
EXTT5=
EXTT6=
EXTT7=
EXTT8=
EXTT9=
EXTT10=
EXTT11=
PLAYORDER=
